<?xml version="1.0" encoding="UTF-8"?>
<!DOCTYPE svg PUBLIC "-//W3C//DTD SVG 1.1//EN" "http://www.w3.org/Graphics/SVG/1.1/DTD/svg11.dtd">
<!-- Creator: CorelDRAW -->
<svg xmlns="http://www.w3.org/2000/svg" xml:space="preserve" width="400px" height="355px" version="1.1" style="shape-rendering:geometricPrecision; text-rendering:geometricPrecision; image-rendering:optimizeQuality; fill-rule:evenodd; clip-rule:evenodd"
viewBox="0 0 399.89 355.12"
 xmlns:xlink="http://www.w3.org/1999/xlink"
 xmlns:xodm="http://www.corel.com/coreldraw/odm/2003">
 <defs>
  <style type="text/css">
   <![CDATA[
    .fil0 {fill:#FEFEFE}
   ]]>
  </style>
 </defs>
 <g id="Ebene_x0020_2">
  <metadata id="CorelCorpID_0Corel-Layer"/>
  <g id="_2114672367312">
   <path class="fil0" d="M41.42 335.47l6.33 19 13.72 0 -22.73 -67.21 -16.28 0 -22.46 67.21 13.22 0 5.97 -19 22.23 0zm-20.14 -9.28l5.4 -16.6c1.24,-4 2.31,-8.65 3.32,-12.59l0.23 0c1.06,3.9 2.22,8.47 3.56,12.63l5.52 16.56 -18.03 0z"/>
   <path class="fil0" d="M84.19 354.24c4.21,0.51 9.84,0.88 17.28,0.88 13.6,0 24.67,-3.09 31.7,-9.15 6.61,-5.78 10.89,-14.69 10.89,-26.74 0,-11.4 -4.15,-19.58 -10.97,-24.9 -6.44,-5.14 -15.38,-7.59 -28.51,-7.59 -7.57,0 -14.69,0.55 -20.39,1.44l0 66.06zm12.77 -57.24c1.86,-0.37 4.72,-0.71 8.72,-0.71 16.06,0 24.95,8.2 24.89,23.37 0,17.01 -9.88,25.86 -26.48,25.77 -2.61,0 -5.33,-0.03 -7.13,-0.33l0 -48.1z"/>
   <polygon class="fil0" points="184.6,354.47 197.39,354.47 197.39,297.58 217.57,297.58 217.57,287.26 164.62,287.26 164.62,297.58 184.6,297.58 "/>
   <path class="fil0" d="M277.27 354.47l24.19 -67.21 -13.61 0 -10.21 30.74c-2.72,8.17 -5.26,16.36 -7.11,24.3l-0.23 0c-1.81,-8.13 -4.15,-16 -6.85,-24.48l-9.54 -30.56 -13.96 0 22.66 67.21 14.66 0z"/>
  </g>
  <path class="fil0" d="M366.48 159.16c-3.1,0 -3.1,-4.52 0,-4.52 2.9,0.04 2.74,4.58 0,4.52zm-17.44 -60.39c-2.19,2.48 -2.91,-2.99 -4.21,-4.34 -1.59,-1.66 -5.27,0.61 -6.33,0.01 -1.93,-1.1 -1.41,-3.91 -3.21,-4.51 -2.92,-0.47 -4.89,1.39 -3.19,4.93 1.1,1.34 3.22,-0.07 5.19,0.52 2.19,1.54 1.46,5.38 -0.07,6.4 -1.12,0.75 -4.74,0.67 -5.2,-0.36l-1.32 -2.96c-1.1,-2.46 -5.72,0.16 -5.15,3.54 0.73,3.7 4.05,0.77 6.04,2.51 2.2,1.94 -0.98,7.7 -4.22,4.99 -0.68,-0.57 -1.12,-1.68 -1.85,-3.12 -0.74,-1.48 -5.22,-1.12 -4.73,2.67 0.39,2.91 1.82,2.01 3.82,2.86 2.77,1.25 2.42,4.19 1.13,5.25 -1.34,1.11 -3.7,1.05 -4.29,2.41 -0.98,3.25 1.32,4.6 -0.35,6.09 -4.38,5.25 2.1,6.71 1.85,12.08 -0.15,3.29 -1.95,1.69 -1.44,6.53 0.22,2.13 4.66,0.59 5.63,6.91 0.43,2.76 4.07,1.11 6.1,2.11 2.19,1.77 0.18,3.25 2.55,4.67 1.29,0.76 3.88,0.16 5.25,0.47 1.65,1.06 1.2,4.07 2.46,5.21 0.93,0.85 3.14,-0.79 5.69,0 1.12,0.35 1.29,3.15 3.02,4.68 1.08,0.96 3.9,0.75 5.04,-0.51 0.9,-1.01 -0.59,-3.39 -0.01,-4.67 1.36,-3 5.25,-2.08 6,-0.98 0.52,0.77 0.89,3.22 1.78,4.04 0.71,0.65 2.36,-0.24 3,0.44 1.53,1.64 2.23,3.05 1.56,4.36 -0.85,1.66 -3.09,2.46 -3.52,3.39 -0.71,1.96 0.15,5.3 -1.69,8.04 -7.39,20.85 -23.54,40.23 -43.39,50.08 -4.56,2.27 -7.6,3.84 -12.81,5.56 -6.36,2.11 -10.4,2.26 -13.07,4.08 -1.82,1.24 -1.01,7.15 2.17,6.84 3.96,-0.38 5.69,2.74 4.49,5.36 -0.83,1.81 -8.01,0.6 -3.53,5.32 1.09,1.15 4.19,0.71 5.16,-0.32 0.94,-1.01 -0.29,-2.99 0.94,-3.85 1.27,-0.9 3.74,-0.52 5.7,1.28 6.38,4.33 6.16,-1.93 9.58,-2.94 2.01,-0.6 4.96,0.34 7.34,-0.23 5.89,-1.4 16.13,-7.09 20.83,-9.96 40.36,-24.66 63.36,-77.01 46.57,-127.56 -4.94,-14.86 -12.99,-28.75 -22.63,-38.97 -8.94,-9.49 -22.31,-21.29 -35.25,-26.34 -18.35,-7.16 -25.52,-10.14 -51.34,-10.26 -15.76,-0.07 -24.63,4.44 -37.82,8.11 -10.06,2.79 -7.05,3.71 -8.64,7.02 -2.58,0.6 -3.81,1.82 -5.32,0.65 -2.95,-2.55 -4.4,1.93 -0.81,1.83 2.32,-0.07 1.18,5.84 2.56,6.02 1.65,0.23 3.73,-0.5 4.96,0.37 1.4,1 1.4,4.08 3.03,4.88 1.47,0.71 3.23,0.08 6.39,-1.31 3.33,-1.9 0.13,-3.44 2.15,-3.79 3.07,-0.18 0.67,1.86 6.27,0.35 30.21,-8.19 57.08,0.67 80.49,19.33 6.59,5.75 4.85,8.66 6.95,9.96 1.28,0.8 6.88,1.22 3.7,4.83zm9.22 51.86c0.32,0 0.58,0.26 0.58,0.57 0,0.32 -0.26,0.57 -0.58,0.57 -0.33,0 -0.59,-0.25 -0.59,-0.57 0,-0.31 0.26,-0.57 0.59,-0.57zm-73.6 95.35c1.15,0 2.07,0.98 2.07,2.19 0,1.21 -0.92,2.2 -2.07,2.2 -1.14,0 -2.07,-0.99 -2.07,-2.2 0,-1.21 0.93,-2.19 2.07,-2.19zm33.8 -130.79c0.82,0 1.48,0.61 1.48,1.36 0,0.75 -0.66,1.36 -1.48,1.36 -0.82,0 -1.48,-0.61 -1.48,-1.36 0,-0.75 0.66,-1.36 1.48,-1.36zm34.07 42.07c1.4,0 2.53,1.1 2.53,2.45 0,1.35 -1.13,2.44 -2.53,2.44 -1.39,0 -2.52,-1.09 -2.52,-2.44 0,-1.35 1.13,-2.45 2.52,-2.45zm27.23 -4.53c0.77,0 1.39,0.65 1.39,1.46 0,0.81 -0.62,1.47 -1.39,1.47 -0.77,0 -1.39,-0.66 -1.39,-1.47 0,-0.81 0.62,-1.46 1.39,-1.46zm-17.71 15.45c1.49,0 2.43,1.31 2.43,2.6 0,1.28 -1.21,2.56 -2.7,2.56 -1.5,0 -3.18,-2.06 -3.18,-3.34 0,-1.29 1.96,-1.82 3.45,-1.82zm-17.4 -15.8c0.97,0 1.76,0.71 1.76,1.6 0,0.88 -0.79,1.6 -1.76,1.6 -0.97,0 -1.76,-0.72 -1.76,-1.6 0,-0.89 0.79,-1.6 1.76,-1.6zm-16.2 -10.84c0.84,0 1.53,0.6 1.53,1.35 0,0.74 -0.69,1.35 -1.53,1.35 -0.85,0 -1.54,-0.61 -1.54,-1.35 0,-0.75 0.69,-1.35 1.54,-1.35zm8.01 5.4c0.81,0 1.46,0.57 1.46,1.27 0,0.7 -0.65,1.27 -1.46,1.27 -0.81,0 -1.47,-0.57 -1.47,-1.27 0,-0.7 0.66,-1.27 1.47,-1.27zm-3.64 12.67c1.26,0 2.29,1.03 2.29,2.29 0,1.26 -1.03,2.29 -2.29,2.29 -1.27,0 -2.29,-1.03 -2.29,-2.29 0,-1.26 1.02,-2.29 2.29,-2.29zm7.61 5.95c1.38,0 2.5,1.07 2.5,2.38 0,1.32 -1.12,2.39 -2.5,2.39 -1.39,0 -2.51,-1.07 -2.51,-2.39 0,-1.31 1.12,-2.38 2.51,-2.38zm8 5.59c1.15,0 2.09,0.96 2.09,2.15 0,1.19 -0.94,2.15 -2.09,2.15 -1.16,0 -2.1,-0.96 -2.1,-2.15 0,-1.19 0.94,-2.15 2.1,-2.15zm-23.67 -15.57c0.66,0 1.19,0.55 1.19,1.23 0,0.69 -0.53,1.24 -1.19,1.24 -0.66,0 -1.19,-0.55 -1.19,-1.24 0,-0.68 0.53,-1.23 1.19,-1.23zm31.51 22.26c0.62,0 1.13,0.5 1.13,1.11 0,0.62 -0.51,1.12 -1.13,1.12 -0.63,0 -1.14,-0.5 -1.14,-1.12 0,-0.61 0.51,-1.11 1.14,-1.11zm-77.27 76.71c0.74,0 1.34,0.55 1.34,1.23 0,0.68 -0.6,1.23 -1.34,1.23 -0.73,0 -1.33,-0.55 -1.33,-1.23 0,-0.68 0.6,-1.23 1.33,-1.23zm8.07 5.02c0.61,0 1.1,0.47 1.1,1.04 0,0.57 -0.49,1.04 -1.1,1.04 -0.61,0 -1.11,-0.47 -1.11,-1.04 0,-0.57 0.5,-1.04 1.11,-1.04zm-62.49 -198.85c1.15,0 2.07,0.93 2.07,2.07 0,1.14 -0.92,2.07 -2.07,2.07 -1.14,0 -2.06,-0.93 -2.06,-2.07 0,-1.14 0.92,-2.07 2.06,-2.07zm7.68 4.06c1.7,0 3.08,1.46 3.08,3.26 0,1.8 -1.38,3.26 -3.08,3.26 -1.69,0 -3.07,-1.46 -3.07,-3.26 0,-1.8 1.38,-3.26 3.07,-3.26zm7.02 5.93c1.22,0 2.33,-0.08 2.33,0.78 0,0.86 -2.11,2.17 -3.34,2.17 -1.23,0 -1.5,-0.92 -1.33,-1.73 0.17,-0.8 1.11,-1.22 2.34,-1.22zm-14.67 2.38c0.77,0 1.39,0.66 1.39,1.48 0,0.82 -0.62,1.49 -1.39,1.49 -0.76,0 -1.39,-0.67 -1.39,-1.49 0,-0.82 0.63,-1.48 1.39,-1.48zm-83.46 -5.48c0.54,0 0.98,0.4 0.98,0.9 0,0.5 -0.44,0.91 -0.98,0.91 -0.54,0 -0.98,-0.41 -0.98,-0.91 0,-0.5 0.44,-0.9 0.98,-0.9zm36.81 -28.1c0.8,0 1.45,0.63 1.45,1.42 0,0.78 -0.65,1.41 -1.45,1.41 -0.8,0 -1.45,-0.63 -1.45,-1.41 0,-0.79 0.65,-1.42 1.45,-1.42zm-5.71 6.99c1.18,0 2.14,0.96 2.14,2.14 0,1.18 -0.96,2.14 -2.14,2.14 -1.19,0 -2.14,-0.96 -2.14,-2.14 0,-1.18 0.95,-2.14 2.14,-2.14zm-2.2 -12.25c0.84,0 1.51,0.7 1.51,1.55 0,0.85 -0.67,1.55 -1.51,1.55 -0.84,0 -1.52,-0.7 -1.52,-1.55 0,-0.85 0.68,-1.55 1.52,-1.55zm-5.98 6.46c1.52,0 2.76,1.26 2.76,2.83 0,1.56 -1.24,2.83 -2.76,2.83 -1.53,0 -2.77,-1.27 -2.77,-2.83 0,-1.57 1.24,-2.83 2.77,-2.83zm35.29 168.76c4.27,-1.95 5.81,3.81 1.24,4.29 -2.5,0.26 -2.82,-3.56 -1.24,-4.29zm5.19 -5.22c-0.1,-2.88 1.8,-3.28 3.33,-1.82 1.24,2 -1.27,4.1 -3.33,1.82zm84.86 -5.58c-2.31,-1.3 0.46,-2.87 1.16,-1.97 0.59,0.88 0.2,2.06 -1.16,1.97zm-85.56 -6.64c-2.21,-0.32 -2.54,-1.75 -1.69,-3.64 4.91,-2.34 4.31,4.36 1.69,3.64zm88.5 -4.44c1.73,-0.85 3.53,-1.44 4.8,-0.75 0.84,0.24 0.79,2.18 0.96,3.7 0,2.07 -2.76,2.14 -4.07,1.41 -1.91,-1.07 -2.4,-2.64 -1.69,-4.36zm-126.07 -36.86c0.37,1.05 2.44,0.37 3.22,0.36 2.31,-0.04 2.32,-1.4 5.55,4.77 6.96,0.78 4.17,-0.13 8.16,4.06 1.81,1.88 4.7,-0.07 6.11,3.03 1.34,1.76 -0.31,2.64 0.95,4.67 0.79,1.28 2.45,1.47 3.22,3 1.83,3.6 -1.87,4.4 -0.33,8.6 2.12,2.48 6.3,0.07 6.55,5.06 0.29,5.8 -4.67,1.5 -4.9,6.34 0.52,5.87 4.72,1.97 6.49,4.76 2.61,4.12 -1.58,7.41 -4.57,5.74 -2.05,-1.15 -0.51,-3.77 -3.02,-4.74 -3.79,-1.46 -6.22,4.41 -2.26,5.75 1.35,0.45 2.68,-0.53 3.93,0.19 1.55,0.9 1.86,3.89 0.3,6.24 -0.69,1.04 -3.11,0.99 -5,1.62 0.25,3.14 1.64,3.88 4.75,4.57 5.5,1.22 2.77,0.96 6.18,3 3.58,2.15 11.17,1.89 15.66,2.11 -0.13,6.46 0.25,18.6 0.16,25.71 -12.09,0.83 -33.12,-2.86 -40.15,-5.12 -31.1,-10.02 -56.35,-32.8 -69.05,-64.94 -13.97,-35.35 -5.44,-84.87 20.39,-112.35 1.52,-1.62 1.6,-1 2.86,-2.53 1.11,-1.35 0.81,-1.67 2.31,-3.1 3.08,-2.96 4.58,-0.36 6.74,-4.6 2.03,-3.96 3.59,-2.11 6.84,-4.1 1.1,-0.91 0.65,-0.84 0.57,-1.93 -0.09,-1.25 1.73,-3.03 4.54,-3.55 2.16,0.76 2.28,3.64 3.03,4.25 2.45,1.99 4.63,-2.88 6.6,3.18 1.82,5.6 2.13,1.18 6.14,3.79 0.75,2.83 -3.39,4.42 -4.06,2.75 -1.76,-4.34 -5.59,-3.04 -6.69,-1.88 -0.68,0.71 -0.53,2.83 0.14,4.35 0.74,1.69 3.57,1.87 1.27,3.13 -2.51,1.38 -3.72,-1.31 -5.72,0.81 -1.73,1.84 0.33,3.16 -1.03,5.63 -0.76,1.39 -3.75,1.5 -4.85,4.84 -1.44,4.35 -4.11,7.45 -4.53,8 -3.6,5.54 -6.87,11.88 -9.24,18.85 -2.68,7.91 -6.86,41.23 -1.48,49.61 0.71,1.11 2.42,0.6 4.16,0.2 2.18,-0.19 3.29,4.51 1.42,4.82 -6,0.97 -4.74,4.86 -3.81,6.3 1.72,2.67 6.92,1.12 5.54,-4.52 -0.47,-1.95 4.48,-3.07 6.11,-2.04 2.3,1.44 0.88,3.69 3.05,4.78 2.81,1.41 5.9,-3.77 3.3,-5.47 -0.99,-0.64 -2.04,-0.4 -4.1,-0.49 -2.68,-0.11 -4.24,-7.24 2.59,-5.99 1.4,0.26 1.22,3.63 2.58,4.69 0.98,0.77 2.9,0.08 5.23,-0.42 3.13,-0.66 0.7,6.98 6.28,5.13 2.65,-0.89 2.69,-6.7 -1.12,-5.93 -5.33,1.09 -3.92,-3.74 -3.77,-4.12 1.15,-3 4.73,-2.53 6.76,3.13zm-81.92 112.94c0,1.24 0.38,1.62 1.62,1.62l131.3 0 -0.09 -16.23c-0.01,-1.85 0.17,-1.73 0.17,-3.43 23.21,0 47.62,-12.06 63.92,-24.94 0.72,-0.57 3.51,-2.53 6.01,-5.17 1.41,-1.49 2.51,-3.48 3.9,-4.61 3.19,-2.59 4.77,-4.45 4.78,-5.24 -0.07,-1.44 -0.75,-2.67 0.15,-4.13 1.52,-1.46 3.46,0.47 5.38,-1.15 1.1,-1.69 -2.48,-4.3 -1.64,-6.75 0,-1.82 5.4,-1.53 5.4,-3.16 0,-5.13 -1.71,-5.63 -5.82,-5.09 -5.37,-1.08 -1.26,-5.25 -4.87,-5.25 -6.43,0 -1.34,5.57 -5.83,7.3 -7.62,3.95 -2.62,3.42 -7.51,7.27 -5.85,4.61 -10.35,8.8 -17.13,12.58 -12.67,7.05 -27.4,12.61 -46.82,12.61l0 -219.9 -132.92 0 0 263.67zm56.4 -119.97c1.05,0 1.91,0.88 1.91,1.97 0,1.09 -0.86,1.98 -1.91,1.98 -1.06,0 -1.91,-0.89 -1.91,-1.98 0,-1.09 0.85,-1.97 1.91,-1.97zm5.13 -6.98c0.51,0 0.92,0.47 0.92,1.05 0,0.58 -0.41,1.05 -0.92,1.05 -0.51,0 -0.92,-0.47 -0.92,-1.05 0,-0.58 0.41,-1.05 0.92,-1.05zm8.37 4.47c1.16,0 2.1,0.95 2.1,2.11 0,1.16 -0.94,2.11 -2.1,2.11 -1.17,0 -2.11,-0.95 -2.11,-2.11 0,-1.16 0.94,-2.11 2.11,-2.11zm13.3 -1.51c0.54,0 0.98,0.5 0.98,1.12 0,0.62 -0.44,1.12 -0.98,1.12 -0.55,0 -0.99,-0.5 -0.99,-1.12 0,-0.62 0.44,-1.12 0.99,-1.12zm7.97 5.4c0.72,0 1.31,0.59 1.31,1.32 0,0.72 -0.59,1.31 -1.31,1.31 -0.73,0 -1.32,-0.59 -1.32,-1.31 0,-0.73 0.59,-1.32 1.32,-1.32zm-28.85 -86.89c1.19,0 2.16,0.93 2.16,2.09 0,1.15 -0.97,2.09 -2.16,2.09 -1.19,0 -2.16,-0.94 -2.16,-2.09 0,-1.16 0.97,-2.09 2.16,-2.09zm5.81 -8.9c1.57,0 2.84,1.36 2.84,3.04 0,1.68 -1.27,3.04 -2.84,3.04 -1.57,0 -2.85,-1.36 -2.85,-3.04 0,-1.68 1.28,-3.04 2.85,-3.04zm138.07 190.78c1.42,0 2.57,0.75 2.57,1.67 0,0.92 -1.15,1.67 -2.57,1.67 -1.41,0 -2.56,-0.75 -2.56,-1.67 0,-0.92 1.15,-1.67 2.56,-1.67zm-162.06 -86.74c0.7,0 1.27,0.61 1.27,1.37 0,0.76 -0.57,1.38 -1.27,1.38 -0.7,0 -1.28,-0.62 -1.28,-1.38 0,-0.76 0.58,-1.37 1.28,-1.37zm-5.54 8.36c0.47,0 0.86,0.46 0.86,1.03 0,0.56 -0.39,1.02 -0.86,1.02 -0.48,0 -0.87,-0.46 -0.87,-1.02 0,-0.57 0.39,-1.03 0.87,-1.03zm-5.68 7.69c0.75,0 1.35,0.58 1.35,1.31 0,0.72 -0.6,1.31 -1.35,1.31 -0.74,0 -1.35,-0.59 -1.35,-1.31 0,-0.73 0.61,-1.31 1.35,-1.31zm13.26 -2.38c0.74,0 1.34,0.58 1.34,1.3 0,0.72 -0.6,1.3 -1.34,1.3 -0.74,0 -1.34,-0.58 -1.34,-1.3 0,-0.72 0.6,-1.3 1.34,-1.3zm-5.46 8.22c0.71,0 1.29,0.62 1.29,1.38 0,0.76 -0.58,1.38 -1.29,1.38 -0.72,0 -1.3,-0.62 -1.3,-1.38 0,-0.76 0.58,-1.38 1.3,-1.38zm-5.52 7.92c0.89,0 1.61,0.69 1.61,1.53 0,0.85 -0.72,1.54 -1.61,1.54 -0.89,0 -1.62,-0.69 -1.62,-1.54 0,-0.84 0.73,-1.53 1.62,-1.53zm8.1 5.27c0.72,0 1.3,0.58 1.3,1.3 0,0.72 -0.58,1.3 -1.3,1.3 -0.72,0 -1.3,-0.58 -1.3,-1.3 0,-0.72 0.58,-1.3 1.3,-1.3zm5.57 -7.66c0.5,0 0.9,0.44 0.9,0.98 0,0.55 -0.4,0.99 -0.9,0.99 -0.5,0 -0.91,-0.44 -0.91,-0.99 0,-0.54 0.41,-0.98 0.91,-0.98zm5.73 -9.39c0.98,0 1.77,0.85 1.77,1.9 0,1.06 -0.79,1.91 -1.77,1.91 -0.98,0 -1.78,-0.85 -1.78,-1.91 0,-1.05 0.8,-1.9 1.78,-1.9zm5.16 -8.58c1.39,0 2.52,1.17 2.52,2.6 0,1.44 -1.13,2.6 -2.52,2.6 -1.39,0 -2.52,-1.16 -2.52,-2.6 0,-1.43 1.13,-2.6 2.52,-2.6zm13.63 -1.57c1.1,0 2,0.83 2,1.85 0,1.02 -0.9,1.85 -2,1.85 -1.11,0 -2.01,-0.83 -2.01,-1.85 0,-1.02 0.9,-1.85 2.01,-1.85zm-5.47 9.03c0.59,0 1.06,0.47 1.06,1.06 0,0.59 -0.47,1.06 -1.06,1.06 -0.59,0 -1.06,-0.47 -1.06,-1.06 0,-0.59 0.47,-1.06 1.06,-1.06zm-16.93 24.33c0.4,0 0.72,0.33 0.72,0.72 0,0.4 -0.32,0.72 -0.72,0.72 -0.39,0 -0.72,-0.32 -0.72,-0.72 0,-0.39 0.33,-0.72 0.72,-0.72zm36.14 -36.12c1.13,0 2.04,0.99 2.04,2.21 0,1.22 -0.91,2.21 -2.04,2.21 -1.14,0 -2.05,-0.99 -2.05,-2.21 0,-1.22 0.91,-2.21 2.05,-2.21zm-41.88 43.58c0.88,0 1.59,0.72 1.59,1.61 0,0.9 -0.71,1.62 -1.59,1.62 -0.88,0 -1.59,-0.72 -1.59,-1.62 0,-0.89 0.71,-1.61 1.59,-1.61zm8.11 5.79c0.58,0 1.06,0.49 1.06,1.1 0,0.61 -0.48,1.1 -1.06,1.1 -0.59,0 -1.07,-0.49 -1.07,-1.1 0,-0.61 0.48,-1.1 1.07,-1.1zm8.12 5.51c0.47,0 0.86,0.42 0.86,0.94 0,0.52 -0.39,0.94 -0.86,0.94 -0.48,0 -0.87,-0.42 -0.87,-0.94 0,-0.52 0.39,-0.94 0.87,-0.94zm7.8 5.63c0.72,0 1.3,0.56 1.3,1.26 0,0.69 -0.58,1.25 -1.3,1.25 -0.71,0 -1.3,-0.56 -1.3,-1.25 0,-0.7 0.59,-1.26 1.3,-1.26zm8.15 5.27c0.85,0 1.54,0.65 1.54,1.45 0,0.81 -0.69,1.46 -1.54,1.46 -0.85,0 -1.53,-0.65 -1.53,-1.46 0,-0.8 0.68,-1.45 1.53,-1.45zm7.85 5.65c0.93,0 1.69,0.72 1.69,1.62 0,0.89 -0.76,1.62 -1.69,1.62 -0.94,0 -1.7,-0.73 -1.7,-1.62 0,-0.9 0.76,-1.62 1.7,-1.62zm5.73 -7.76c0.77,0 1.39,0.61 1.39,1.35 0,0.74 -0.62,1.34 -1.39,1.34 -0.76,0 -1.38,-0.6 -1.38,-1.34 0,-0.74 0.62,-1.35 1.38,-1.35zm-7.91 -5.71c0.63,0 1.14,0.55 1.14,1.22 0,0.67 -0.51,1.21 -1.14,1.21 -0.63,0 -1.14,-0.54 -1.14,-1.21 0,-0.67 0.51,-1.22 1.14,-1.22zm13.73 -2.32c0.72,0 1.3,0.56 1.3,1.26 0,0.7 -0.58,1.26 -1.3,1.26 -0.71,0 -1.3,-0.56 -1.3,-1.26 0,-0.7 0.59,-1.26 1.3,-1.26zm5.6 -9.23c1.43,0.46 1.69,0.29 2.79,2.45 1.1,2.16 -0.96,2.98 -2.66,2.72 -1.7,-0.27 -2.99,-1.2 -2.99,-2.59 0,-1.39 1.42,-3.04 2.86,-2.58zm2.32 14.45c0.79,0 1.43,0.65 1.43,1.46 0,0.8 -0.64,1.46 -1.43,1.46 -0.8,0 -1.44,-0.66 -1.44,-1.46 0,-0.81 0.64,-1.46 1.44,-1.46zm-5.65 8.39c0.65,0 1.18,0.53 1.18,1.18 0,0.66 -0.53,1.18 -1.18,1.18 -0.66,0 -1.18,-0.52 -1.18,-1.18 0,-0.65 0.52,-1.18 1.18,-1.18zm8.05 5.82c0.51,0 0.93,0.4 0.93,0.89 0,0.49 -0.42,0.88 -0.93,0.88 -0.51,0 -0.93,-0.39 -0.93,-0.88 0,-0.49 0.42,-0.89 0.93,-0.89zm5.41 -7.99c0.5,0 0.91,0.42 0.91,0.93 0,0.52 -0.41,0.94 -0.91,0.94 -0.5,0 -0.9,-0.42 -0.9,-0.94 0,-0.51 0.4,-0.93 0.9,-0.93zm2.47 14.61c0.64,0 1.16,0.57 1.16,1.27 0,0.69 -0.52,1.26 -1.16,1.26 -0.65,0 -1.17,-0.57 -1.17,-1.26 0,-0.7 0.52,-1.27 1.17,-1.27zm-26.21 -31.36c0.49,0 0.89,0.41 0.89,0.91 0,0.5 -0.4,0.9 -0.89,0.9 -0.49,0 -0.89,-0.4 -0.89,-0.9 0,-0.5 0.4,-0.91 0.89,-0.91zm5.11 -8.3c0.59,0 1.06,0.46 1.06,1.02 0,0.57 -0.47,1.03 -1.06,1.03 -0.59,0 -1.06,-0.46 -1.06,-1.03 0,-0.56 0.47,-1.02 1.06,-1.02zm5.83 -7.5c0.56,0 1.02,0.47 1.02,1.04 0,0.57 -0.46,1.04 -1.02,1.04 -0.57,0 -1.02,-0.47 -1.02,-1.04 0,-0.57 0.45,-1.04 1.02,-1.04zm5.97 -8.54c0.87,0 1.58,0.73 1.58,1.62 0,0.89 -0.71,1.61 -1.58,1.61 -0.86,0 -1.57,-0.72 -1.57,-1.61 0,-0.89 0.71,-1.62 1.57,-1.62zm-10.7 -19.21c0.57,0 1.03,0.44 1.03,0.98 0,0.55 -0.46,0.99 -1.03,0.99 -0.56,0 -1.02,-0.44 -1.02,-0.99 0,-0.54 0.46,-0.98 1.02,-0.98zm120.16 8.01c1.42,0 2.57,1.1 2.57,2.45 0,1.35 -1.15,2.44 -2.57,2.44 -1.42,0 -2.57,-1.09 -2.57,-2.44 0,-1.35 1.15,-2.45 2.57,-2.45zm7.66 5.88c1.14,0 2.06,0.96 2.06,2.15 0,1.2 -0.92,2.16 -2.06,2.16 -1.13,0 -2.05,-0.96 -2.05,-2.16 0,-1.19 0.92,-2.15 2.05,-2.15zm5.34 69.67c0.77,0 1.39,0.62 1.39,1.39 0,0.77 -0.62,1.39 -1.39,1.39 -0.77,0 -1.39,-0.62 -1.39,-1.39 0,-0.77 0.62,-1.39 1.39,-1.39zm-19.98 1.37c1.89,0 3.42,1.5 3.42,3.35 0,1.85 -1.53,3.35 -3.42,3.35 -1.88,0 -3.41,-1.5 -3.41,-3.35 0,-1.85 1.53,-3.35 3.41,-3.35zm81.59 -89.32c0.77,0 1.39,0.66 1.39,1.48 0,0.82 -0.62,1.48 -1.39,1.48 -0.77,0 -1.4,-0.66 -1.4,-1.48 0,-0.82 0.63,-1.48 1.4,-1.48zm7.99 5.79c0.64,0 1.16,0.54 1.16,1.21 0,0.66 -0.52,1.2 -1.16,1.2 -0.64,0 -1.16,-0.54 -1.16,-1.2 0,-0.67 0.52,-1.21 1.16,-1.21zm11.29 -16.89c1.11,0 2.01,0.87 2.01,1.95 0,1.07 -0.9,1.94 -2.01,1.94 -1.11,0 -2.01,-0.87 -2.01,-1.94 0,-1.08 0.9,-1.95 2.01,-1.95zm-8.1 -5.16c0.84,0 1.52,0.72 1.52,1.61 0,0.89 -0.68,1.61 -1.52,1.61 -0.84,0 -1.52,-0.72 -1.52,-1.61 0,-0.89 0.68,-1.61 1.52,-1.61zm-13.8 3.41c0.5,0 0.9,0.39 0.9,0.87 0,0.47 -0.4,0.86 -0.9,0.86 -0.51,0 -0.91,-0.39 -0.91,-0.86 0,-0.48 0.4,-0.87 0.91,-0.87zm16.21 10.38c0.86,0 1.56,0.7 1.56,1.56 0,0.86 -0.7,1.57 -1.56,1.57 -0.86,0 -1.56,-0.71 -1.56,-1.57 0,-0.86 0.7,-1.56 1.56,-1.56zm-144.02 -100.8c1.02,0 1.85,0.82 1.85,1.82 0,1 -0.83,1.81 -1.85,1.81 -1.01,0 -1.84,-0.81 -1.84,-1.81 0,-1 0.83,-1.82 1.84,-1.82zm102.42 24.58c0.63,0 1.15,0.51 1.15,1.14 0,0.64 -0.52,1.15 -1.15,1.15 -0.63,0 -1.14,-0.51 -1.14,-1.15 0,-0.63 0.51,-1.14 1.14,-1.14zm8.3 5.08c0.77,0 1.39,0.64 1.39,1.43 0,0.78 -0.62,1.42 -1.39,1.42 -0.77,0 -1.4,-0.64 -1.4,-1.42 0,-0.79 0.63,-1.43 1.4,-1.43zm5.42 -7.32c0.67,0 1.22,0.57 1.22,1.26 0,0.69 -0.55,1.26 -1.22,1.26 -0.68,0 -1.23,-0.57 -1.23,-1.26 0,-0.69 0.55,-1.26 1.23,-1.26zm7.96 4.81c0.87,0 1.59,0.7 1.59,1.56 0,0.87 -0.72,1.57 -1.59,1.57 -0.88,0 -1.6,-0.7 -1.6,-1.57 0,-0.86 0.72,-1.56 1.6,-1.56zm8.1 5.7c0.87,0 1.59,0.75 1.59,1.67 0,0.93 -0.72,1.68 -1.59,1.68 -0.88,0 -1.6,-0.75 -1.6,-1.68 0,-0.92 0.72,-1.67 1.6,-1.67zm-13.63 2.23c0.75,0 1.36,0.67 1.36,1.51 0,0.83 -0.61,1.51 -1.36,1.51 -0.76,0 -1.37,-0.68 -1.37,-1.51 0,-0.84 0.61,-1.51 1.37,-1.51zm7.76 6.14c0.69,0 1.26,0.57 1.26,1.26 0,0.7 -0.57,1.26 -1.26,1.26 -0.69,0 -1.26,-0.56 -1.26,-1.26 0,-0.69 0.57,-1.26 1.26,-1.26zm-13.35 2.63c0.54,0 0.98,0.44 0.98,0.98 0,0.54 -0.44,0.97 -0.98,0.97 -0.54,0 -0.98,-0.43 -0.98,-0.97 0,-0.54 0.44,-0.98 0.98,-0.98zm-13.91 1.34c0.88,0 1.59,0.71 1.59,1.59 0,0.88 -0.71,1.59 -1.59,1.59 -0.88,0 -1.59,-0.71 -1.59,-1.59 0,-0.88 0.71,-1.59 1.59,-1.59zm-38.49 139.26c1.29,0 2.33,1.03 2.33,2.31 0,1.28 -1.04,2.31 -2.33,2.31 -1.29,0 -2.33,-1.03 -2.33,-2.31 0,-1.28 1.04,-2.31 2.33,-2.31z"/>
 </g>
</svg>
