<?xml version="1.0" encoding="UTF-8"?>
<!-- Generator: Adobe Illustrator 16.0.3, SVG Export Plug-In . SVG Version: 6.00 Build 0)  -->
<svg xmlns="http://www.w3.org/2000/svg" xmlns:xlink="http://www.w3.org/1999/xlink" version="1.1" id="Ebene_1" x="0px" y="0px" width="800px" height="800px" viewBox="0 0 800 800" xml:space="preserve">
<g>
	<g>
		<path fill="#ffffff" d="M27.463,621.778c0,61.34,50.191,111.526,111.53,111.526h524.494c61.343,0,111.524-50.187,111.524-111.526    V320.177H27.463V621.778z M709.44,561.946H588.266V493.73H709.44V561.946z M544.276,561.946H423.209V493.73h121.067V561.946z     M423.21,605.947h121.067v61.783H423.21V605.947z M379.226,667.73H258.165v-61.783h121.061V667.73z M423.21,449.737v-63.981    h121.067v63.981H423.21z M379.226,449.737H258.165v-63.981h121.061V449.737z M379.226,493.73v68.216H258.165V493.73H379.226    L379.226,493.73z M214.176,561.946H93.038V493.73h121.138V561.946z M93.038,621.778v-15.831h121.138v61.783h-75.183    C114.082,667.73,93.038,646.688,93.038,621.778z M663.486,667.73h-75.223v-61.783h121.176v15.831    C709.44,646.688,688.4,667.73,663.486,667.73z M709.44,449.737H588.266v-63.981H709.44V449.737z M214.176,385.756v63.981H93.038    v-63.981H214.176z"></path>
		<path fill="#ffffff" d="M663.486,108.162h-26.18v66.729c0,32.595-26.413,59.014-59.018,59.014    c-32.585,0-59.011-26.419-59.011-59.014v-66.729H283.201v66.729c0,32.595-26.42,59.014-59.014,59.014    c-32.597,0-59.019-26.419-59.019-59.014v-66.729h-26.176c-61.338,0-111.53,50.183-111.53,111.524v65.524h747.548v-65.524    C775.011,158.344,724.829,108.162,663.486,108.162z"></path>
		<path fill="#ffffff" d="M224.188,207.682c18.104,0,32.785-14.681,32.785-32.791V63.413c0-18.11-14.681-32.792-32.785-32.792    c-18.108,0-32.791,14.682-32.791,32.792v111.478C191.397,193.001,206.08,207.682,224.188,207.682z"></path>
		<path fill="#ffffff" d="M578.289,207.682c18.115,0,32.793-14.681,32.793-32.791V63.413c0-18.11-14.678-32.792-32.793-32.792    c-18.1,0-32.794,14.682-32.794,32.792v111.478C545.495,193.001,560.189,207.682,578.289,207.682z"></path>
	</g>
</g>
</svg>
