<?xml version="1.0" encoding="UTF-8"?>
<!DOCTYPE svg PUBLIC "-//W3C//DTD SVG 1.1//EN" "http://www.w3.org/Graphics/SVG/1.1/DTD/svg11.dtd">
<!-- Creator: CorelDRAW -->
<svg xmlns="http://www.w3.org/2000/svg" xml:space="preserve" width="400px" height="400px" version="1.1" style="shape-rendering:geometricPrecision; text-rendering:geometricPrecision; image-rendering:optimizeQuality; fill-rule:evenodd; clip-rule:evenodd"
viewBox="0 0 742.78 742.78"
 xmlns:xlink="http://www.w3.org/1999/xlink"
 xmlns:xodm="http://www.corel.com/coreldraw/odm/2003">
 <defs>
  <style type="text/css">
   <![CDATA[
    .fil0 {fill:#666666}
    .fil2 {fill:#FDFDFD}
    .fil1 {fill:#FEFEFE}
   ]]>
  </style>
 </defs>
 <g id="Ebene_x0020_1">
  <metadata id="CorelCorpID_0Corel-Layer"/>
  <path class="fil0" d="M371.39 0c205.11,0 371.39,166.28 371.39,371.39 0,205.11 -166.28,371.39 -371.39,371.39 -205.11,0 -371.39,-166.28 -371.39,-371.39 0,-205.11 166.28,-371.39 371.39,-371.39z"/>
  <polygon class="fil1" points="270.4,308.65 319.72,309.01 320.02,579.43 270.76,579.61 270.39,629.06 469.66,629.34 470.15,579.88 420.78,579.45 420.42,259.56 270.81,259.04 "/>
  <path class="fil2" d="M363.15 116.16c-68.9,13.54 -47.75,109.22 16.01,98.65 25.21,-4.18 44.96,-29.46 40.3,-57.55 -4.05,-24.37 -28.64,-46.54 -56.31,-41.1z"/>
 </g>
</svg>
