<?xml version="1.0" encoding="utf-8"?>
<svg viewBox="0 0 280 130" xmlns="http://www.w3.org/2000/svg">
  <g transform="matrix(1, 0, 0, 1, 1.7763568394002505e-15, 8.881784197001252e-16)">
    <defs>
      <polygon id="SVGID_1_" points="126.005,92.795 133.61,75.254 241.4,75.659 237.141,93.201   "/>
    </defs>
    <clipPath id="SVGID_2_">
      <polygon points="126.005,92.795 133.61,75.254 241.4,75.659 237.141,93.201   " overflow="visible"/>
    </clipPath>
    <g transform="matrix(1 0 0 1 0 -7.629395e-006)" clip-path="url(#SVGID_2_)">
      <image overflow="visible" width="342" height="54" transform="matrix(0.3379 0 0 0.3335 125.9033 75.293)"/>
    </g>
  </g>
  <g transform="matrix(1, 0, 0, 1, 1.7763568394002505e-15, 8.881784197001252e-16)">
    <defs>
      <path id="SVGID_3_" d="M126.005,92.795c-6.084-0.101-18.252,0.608-40.155-5.07c-35.491-9.227-41.575-29.507-41.98-39.749    l8.011-0.406c0.507,11.966,15.92,19.975,35.592,23.932c24.438,4.968,30.42,3.445,46.137,3.752L126.005,92.795z"/>
    </defs>
    <clipPath id="SVGID_4_">
      <path d="M126.005,92.795c-6.084-0.101-18.252,0.608-40.155-5.07c-35.491-9.227-41.575-29.507-41.98-39.749    l8.011-0.406c0.507,11.966,15.92,19.975,35.592,23.932c24.438,4.968,30.42,3.445,46.137,3.752L126.005,92.795z" overflow="visible"/>
    </clipPath>
    <g clip-path="url(#SVGID_4_)">
      <image overflow="visible" width="266" height="137" transform="matrix(0.3377 0 0 0.3349 43.7686 47.5132)"/>
    </g>
  </g>
  <g transform="matrix(1, 0, 0, 1, 1.7763568394002505e-15, 8.881784197001252e-16)">
    <defs>
      <path id="SVGID_5_" d="M43.87,47.976c0.102-31.333,46.441-41.878,94.607-41.878l0.406,6.083    C55.125,12.08,51.475,37.532,51.881,47.57L43.87,47.976z"/>
    </defs>
    <clipPath id="SVGID_6_">
      <path d="M43.87,47.976c0.102-31.333,46.441-41.878,94.607-41.878l0.406,6.083    C55.125,12.08,51.475,37.532,51.881,47.57L43.87,47.976z" overflow="visible"/>
    </clipPath>
    <g clip-path="url(#SVGID_6_)">
      <image overflow="visible" width="282" height="125" transform="matrix(0.3373 0 0 0.335 43.7686 6)"/>
    </g>
  </g>
  <g transform="matrix(1, 0, 0, 1, 1.7763568394002505e-15, 8.881784197001252e-16)">
    <defs>
      <path id="SVGID_7_" d="M138.477,6.098c51.816,0,94.203,14.703,111.846,37.113l-6.591,25.349    c-3.752-27.986-46.137-55.973-104.849-56.378L138.477,6.098z"/>
    </defs>
    <clipPath id="SVGID_8_">
      <path d="M138.477,6.098c51.816,0,94.203,14.703,111.846,37.113l-6.591,25.349    c-3.752-27.986-46.137-55.973-104.849-56.378L138.477,6.098z" overflow="visible"/>
    </clipPath>
    <g transform="matrix(1 0 0 1 1.525879e-005 0)" clip-path="url(#SVGID_8_)">
      <image overflow="visible" width="332" height="186" transform="matrix(0.3372 0 0 0.3362 138.4771 6.0269)"/>
    </g>
  </g>
  <g transform="matrix(1, 0, 0, 1, 1.7763568394002505e-15, 8.881784197001252e-16)">
    <image overflow="visible" width="430" height="73" transform="matrix(0.3372 0 0 0.3308 119.313 70.4707)"/>
  </g>
  <polygon fill="#ADADAD" points="151.863,72.21 142.23,91.78 136.957,91.78 136.045,78.802 129.757,91.78 124.078,91.78   123.166,72.21 128.439,72.21 128.541,85.698 135.131,72.21 140.101,72.21 140.606,85.698 146.691,72.21 " transform="matrix(1, 0, 0, 1, 1.7763568394002505e-15, 8.881784197001252e-16)"/>
  <path fill="#ADADAD" d="M162.408,82.553c0-0.201,0-0.405,0.102-0.505c0-0.102,0-0.202,0-0.407c0-0.709-0.203-1.217-0.71-1.623  c-0.406-0.304-1.015-0.506-1.826-0.506c-0.304,0-0.506,0-0.708,0v-2.94c0.404,0,0.811,0,1.216,0c2.23,0,3.954,0.406,5.071,1.318  c1.115,0.912,1.622,2.23,1.622,3.956c0,0.607,0,1.215-0.204,1.722c-0.102,0.608-0.202,1.115-0.405,1.725h-7.3v-2.739H162.408  L162.408,82.553z M159.266,92.187v-3.346c0.202,0,0.404,0,0.708,0c1.016,0,2.029-0.101,2.942-0.506  c0.912-0.307,1.723-0.711,2.432-1.117h0.509l-0.913,3.752c-0.911,0.406-1.927,0.71-2.94,0.914  C161.191,92.085,160.178,92.187,159.266,92.187z M159.266,79.512c-0.711,0.103-1.217,0.406-1.727,0.812  c-0.707,0.507-1.215,1.217-1.518,2.229h3.244v2.739h-3.752c0,0.102,0,0.102,0,0.102c0,0.101,0,0.101,0,0.202  c0,1.014,0.404,1.824,1.115,2.433c0.608,0.507,1.521,0.712,2.637,0.813v3.346c-0.203,0-0.306,0-0.508,0  c-2.534,0-4.462-0.507-5.78-1.623c-1.42-1.114-2.13-2.636-2.13-4.663c0-1.319,0.203-2.537,0.71-3.753  c0.407-1.114,1.117-2.027,1.927-2.94c0.812-0.811,1.826-1.419,3.043-1.926c0.811-0.405,1.724-0.608,2.738-0.71V79.512z" transform="matrix(1, 0, 0, 1, 1.7763568394002505e-15, 8.881784197001252e-16)"/>
  <path fill="#ADADAD" d="M185.832,81.741c0,1.319-0.204,2.638-0.607,3.957c-0.406,1.216-1.017,2.33-1.826,3.243  c-0.71,1.016-1.623,1.725-2.738,2.333c-0.912,0.506-2.028,0.811-3.245,0.811v-3.447c0.812-0.202,1.521-0.81,2.13-1.521  c0.912-1.217,1.317-2.637,1.317-4.463c0-0.809-0.202-1.52-0.606-1.927c-0.307-0.404-0.913-0.607-1.828-0.607  c-0.403,0-0.707,0-1.013,0.101v-2.433c0.406-0.305,0.812-0.507,1.217-0.71c0.812-0.305,1.624-0.507,2.535-0.507  c1.622,0,2.739,0.507,3.55,1.419C185.427,78.904,185.832,80.12,185.832,81.741L185.832,81.741z M177.415,71.298h0.508l-0.508,2.129  V71.298z M177.415,92.085h-0.102c-0.913,0-1.62-0.1-2.23-0.201c-0.709-0.204-1.318-0.406-1.824-0.813l-0.305,0.709h-4.563  l4.663-20.482h4.361v2.129l-1.217,5.071c0.406-0.203,0.812-0.508,1.217-0.71v2.433c-0.102,0-0.304,0.103-0.405,0.103  c-0.405,0.202-0.913,0.404-1.419,0.608l-1.724,7.504c0.303,0.1,0.708,0.202,1.013,0.305c0.306,0,0.711,0.101,1.217,0.101  c0.407,0,0.913-0.101,1.318-0.203V92.085z" transform="matrix(1, 0, 0, 1, 1.7763568394002505e-15, 8.881784197001252e-16)"/>
  <path fill="#ADADAD" d="M192.931,92.085c-1.623,0-2.839-0.201-3.549-0.811c-0.712-0.508-1.016-1.317-1.016-2.333  c0-0.304,0-0.606,0.102-0.913c0-0.2,0.102-0.507,0.102-0.911l1.623-6.997h-1.925l0.708-3.143h1.926l1.016-4.259h4.765l-1.015,4.259  h4.462l-0.709,3.143h-4.462l-1.217,5.374c-0.101,0.305-0.204,0.709-0.204,1.115c-0.1,0.305-0.201,0.711-0.201,0.912  c0,0.507,0.201,0.914,0.508,1.116c0.303,0.203,0.709,0.304,1.317,0.304c0.304,0,0.607,0,1.014-0.101  c0.405-0.101,0.71-0.203,0.912-0.306h0.406l-0.71,3.145c-0.506,0.101-1.116,0.204-1.724,0.306  C194.45,92.085,193.741,92.085,192.931,92.085z" transform="matrix(1, 0, 0, 1, 1.7763568394002505e-15, 8.881784197001252e-16)"/>
  <path fill="#A3A1A1" d="M216.657,82.453c0,1.318-0.203,2.636-0.71,3.854c-0.507,1.215-1.114,2.229-1.926,3.143  c-0.913,0.913-1.927,1.622-3.144,2.128c-0.711,0.307-1.622,0.508-2.535,0.609v-3.245c0.304-0.101,0.506-0.201,0.812-0.406  c0.506-0.304,0.913-0.707,1.318-1.215c0.405-0.608,0.709-1.318,0.912-2.028c0.202-0.711,0.306-1.622,0.306-2.739  c0-0.912-0.204-1.52-0.609-2.027c-0.407-0.508-1.014-0.709-1.825-0.709c-0.305,0-0.609,0-0.913,0.102v-3.245  c0.506-0.102,0.913-0.102,1.419-0.102c2.232,0,3.955,0.507,5.172,1.521C216.051,79.106,216.657,80.626,216.657,82.453z   M208.343,92.187c-0.506,0.102-1.014,0.102-1.521,0.102c-2.128,0-3.853-0.508-5.071-1.622c-1.114-1.013-1.722-2.535-1.722-4.359  c0-1.318,0.201-2.535,0.607-3.754c0.507-1.215,1.114-2.229,2.028-3.142c0.812-0.913,1.825-1.623,3.043-2.13  c0.811-0.304,1.725-0.508,2.636-0.608v3.245c-0.304,0-0.608,0.202-0.911,0.303c-0.508,0.405-0.914,0.813-1.32,1.42  c-0.304,0.507-0.607,1.216-0.811,2.029c-0.203,0.811-0.305,1.724-0.305,2.533c0,1.015,0.203,1.725,0.608,2.232  c0.507,0.405,1.116,0.607,1.827,0.607c0.303,0,0.607,0,0.911-0.102V92.187z" transform="matrix(1, 0, 0, 1, 1.7763568394002505e-15, 8.881784197001252e-16)"/>
  <path fill="#ADADAD" d="M235.214,82.453c0,1.318-0.304,2.636-0.709,3.854c-0.508,1.215-1.115,2.229-2.029,3.143  c-0.81,0.913-1.825,1.622-3.041,2.128c-0.709,0.307-1.623,0.508-2.536,0.609v-3.245c0.203-0.101,0.509-0.201,0.711-0.406  c0.608-0.304,1.014-0.707,1.418-1.215c0.407-0.608,0.711-1.318,0.915-2.028c0.202-0.711,0.303-1.622,0.303-2.739  c0-0.912-0.202-1.52-0.608-2.027c-0.405-0.508-1.014-0.709-1.927-0.709c-0.303,0-0.608,0-0.812,0.102v-3.245  c0.406-0.102,0.913-0.102,1.42-0.102c2.232,0,3.957,0.507,5.071,1.521C234.605,79.106,235.214,80.626,235.214,82.453z   M226.898,92.187c-0.506,0.102-1.013,0.102-1.52,0.102c-2.231,0-3.854-0.508-5.07-1.622c-1.218-1.013-1.724-2.535-1.724-4.359  c0-1.318,0.201-2.535,0.607-3.754c0.406-1.215,1.116-2.229,1.926-3.142c0.914-0.913,1.929-1.623,3.144-2.13  c0.813-0.304,1.624-0.508,2.637-0.608v3.245c-0.303,0-0.606,0.202-0.912,0.303c-0.507,0.405-0.911,0.813-1.319,1.42  c-0.405,0.507-0.709,1.216-0.911,2.029c-0.203,0.811-0.304,1.724-0.304,2.533c0,1.015,0.304,1.725,0.709,2.232  c0.407,0.405,1.014,0.607,1.825,0.607c0.306,0,0.609,0,0.912-0.102V92.187z" transform="matrix(1, 0, 0, 1, 1.7763568394002505e-15, 8.881784197001252e-16)"/>
  <polygon fill="#ADADAD" points="246.166,71.298 241.4,91.78 236.633,91.78 241.4,71.298 " transform="matrix(1, 0, 0, 1, 1.7763568394002505e-15, 8.881784197001252e-16)"/>
  <path fill="#ADADAD" d="M251.541,92.187c-1.218,0-2.435-0.102-3.651-0.303c-1.218-0.204-2.128-0.508-2.739-0.813l0.915-3.954h0.403  c0.203,0.203,0.508,0.404,0.813,0.607c0.203,0.203,0.709,0.406,1.217,0.61c0.506,0.2,1.014,0.405,1.622,0.506  s1.317,0.202,2.029,0.202c1.014,0,1.825-0.102,2.329-0.303c0.611-0.305,0.814-0.609,0.814-1.116c0-0.304-0.203-0.609-0.508-0.81  c-0.407-0.205-1.217-0.408-2.435-0.711c-2.027-0.405-3.347-1.015-4.055-1.623c-0.812-0.709-1.116-1.521-1.116-2.534  c0-1.623,0.71-2.942,2.23-3.956c1.419-0.912,3.446-1.419,6.084-1.419c1.016,0,2.13,0.102,3.244,0.406  c1.117,0.202,1.927,0.405,2.435,0.709l-0.812,3.753h-0.403c-0.61-0.508-1.421-0.914-2.233-1.219  c-0.91-0.303-1.823-0.507-2.738-0.507c-1.012,0-1.823,0.204-2.331,0.406c-0.608,0.203-0.811,0.607-0.811,1.116  c0,0.404,0.202,0.71,0.71,0.911c0.404,0.204,1.116,0.405,2.128,0.609c1.927,0.405,3.246,0.913,4.056,1.521  c0.813,0.607,1.22,1.521,1.22,2.636c0,1.621-0.712,2.941-2.233,3.853C256.205,91.78,254.177,92.187,251.541,92.187z" transform="matrix(1, 0, 0, 1, 1.7763568394002505e-15, 8.881784197001252e-16)"/>
  <g transform="matrix(1, 0, 0, 1, 1.7763568394002505e-15, 8.881784197001252e-16)">
    <image overflow="visible" width="795" height="137" transform="matrix(0.3374 0 0 0.3348 4.729 20.5586)"/>
  </g>
  <polygon fill="#B3B2B2" points="43.667,30.027 32.006,30.027 25.111,60.145 15.376,60.145 22.374,30.027 10.711,30.027   12.334,22.828 45.29,22.828 " transform="matrix(1, 0, 0, 1, 1.7763568394002505e-15, 8.881784197001252e-16)"/>
  <path fill="#B3B2B2" d="M62.122,46.86c-1.622,0.103-3.143,0.305-4.563,0.508c-0.406,0-0.71,0.101-1.115,0.101v-5.172  c2.128-0.203,4.461-0.405,6.896-0.608c0-0.101,0-0.203,0.101-0.507c0-0.203,0.102-0.405,0.102-0.709  c0-1.217-0.608-2.027-1.724-2.535c-1.115-0.508-2.738-0.71-4.867-0.71c-0.203,0-0.304,0-0.507,0v-5.88  c1.216-0.103,2.332-0.204,3.447-0.204c4.462,0,7.707,0.608,9.735,1.724c2.028,1.216,3.143,2.941,3.143,5.374  c0,0.405-0.101,0.811-0.101,1.318c-0.102,0.507-0.203,1.014-0.304,1.42l-4.36,19.165h-9.025l0.71-3.043  c-0.608,0.407-1.217,0.811-2.028,1.419c-0.405,0.204-0.811,0.407-1.216,0.609v-4.36c0.507-0.102,0.912-0.203,1.419-0.406  c1.015-0.406,1.926-0.912,2.84-1.622L62.122,46.86z M56.444,47.469c-0.912,0.203-1.724,0.406-2.434,0.607  c-1.014,0.406-1.825,0.914-2.332,1.623c-0.608,0.609-0.812,1.522-0.812,2.637c0,0.913,0.305,1.622,1.014,2.028  c0.709,0.406,1.724,0.609,3.143,0.609c0.406,0,0.914-0.101,1.42-0.203v4.36c-0.305,0.203-0.709,0.406-1.014,0.607  c-0.913,0.306-1.825,0.609-2.637,0.813c-0.811,0.203-1.926,0.303-3.447,0.303c-2.333,0-4.258-0.608-5.679-1.925  c-1.521-1.319-2.231-3.043-2.231-5.173c0-2.23,0.508-4.056,1.521-5.577c1.115-1.623,2.636-2.839,4.766-3.752  c1.926-0.912,4.258-1.521,6.896-1.825c0.608-0.101,1.216-0.203,1.825-0.304V47.469L56.444,47.469z M56.444,31.347v5.88  c-1.318,0.101-2.839,0.304-4.462,0.811c-1.825,0.507-3.143,0.913-4.057,1.217h-0.81l1.318-6.692  c1.014-0.305,2.637-0.508,4.867-0.912C54.416,31.549,55.43,31.448,56.444,31.347z" transform="matrix(1, 0, 0, 1, 1.7763568394002505e-15, 8.881784197001252e-16)"/>
  <polygon fill="#B3B2B2" points="106.435,60.145 96.904,60.145 91.427,47.672 87.371,51.221 85.344,60.145 76.217,60.145   85.241,21.104 94.368,21.104 88.994,44.426 101.567,31.955 111.91,31.955 98.931,44.224 " transform="matrix(1, 0, 0, 1, 1.7763568394002505e-15, 8.881784197001252e-16)"/>
  <path fill="#B3B2B2" d="M133.509,42.399c0-0.304,0-0.507,0.101-0.811c0-0.203,0-0.508,0-0.811c0-1.319-0.405-2.231-1.217-2.941  c-0.81-0.709-2.027-1.115-3.549-1.115c-0.507,0-0.912,0.101-1.419,0.101v-5.577c0.811-0.101,1.623-0.101,2.433-0.101  c4.26,0,7.402,0.811,9.534,2.535c2.027,1.622,3.041,4.157,3.041,7.503c0,1.115-0.101,2.23-0.303,3.347  c-0.203,1.014-0.507,2.128-0.914,3.144h-13.791v-5.273H133.509L133.509,42.399z M127.424,60.853v-6.387  c0.406,0.102,0.913,0.102,1.319,0.102c2.028,0,3.853-0.406,5.679-1.015c1.723-0.709,3.244-1.419,4.562-2.229h0.913l-1.623,7.198  c-1.724,0.812-3.548,1.42-5.475,1.724C131.075,60.651,129.352,60.853,127.424,60.853z M127.424,36.821  c-1.217,0.204-2.333,0.71-3.245,1.42c-1.318,1.014-2.231,2.435-2.839,4.157h6.083v5.273h-6.996c0,0.1,0,0.203,0,0.304  c0,0.101,0,0.203,0,0.304c0,1.926,0.709,3.447,2.028,4.563c1.216,0.912,2.838,1.521,4.968,1.623v6.387c-0.303,0-0.507,0-0.812,0  c-4.867,0-8.517-1.013-11.154-3.142c-2.636-2.13-3.853-5.071-3.853-8.823c0-2.534,0.405-4.866,1.216-6.996  c0.913-2.23,2.129-4.056,3.651-5.678c1.622-1.623,3.549-2.839,5.78-3.752c1.622-0.608,3.346-1.014,5.171-1.217V36.821z" transform="matrix(1, 0, 0, 1, 1.7763568394002505e-15, 8.881784197001252e-16)"/>
  <polygon fill="#B3B2B2" points="181.37,30.027 169.71,30.027 162.813,60.145 153.078,60.145 160.076,30.027 148.413,30.027   150.038,22.828 182.992,22.828 " transform="matrix(1, 0, 0, 1, 1.7763568394002505e-15, 8.881784197001252e-16)"/>
  <path fill="#B3B2B2" d="M212.095,42.297c0,2.637-0.404,5.071-1.318,7.402c-0.912,2.333-2.13,4.259-3.752,5.983  c-1.622,1.725-3.549,3.042-5.779,3.955c-1.521,0.608-3.144,1.014-4.968,1.216v-6.185c0.506-0.203,1.013-0.405,1.52-0.71  c1.014-0.608,1.927-1.419,2.637-2.433c0.709-1.216,1.316-2.434,1.725-3.853c0.405-1.42,0.606-3.043,0.606-5.071  c0-1.724-0.404-3.042-1.215-3.955c-0.711-0.913-1.927-1.419-3.55-1.419c-0.607,0-1.115,0.101-1.723,0.202v-6.185  c0.911-0.101,1.824-0.101,2.838-0.101c4.157,0,7.402,0.912,9.634,2.94C210.98,36.011,212.095,38.749,212.095,42.297z   M196.277,60.853c-0.813,0.103-1.827,0.204-2.74,0.204c-4.258,0-7.401-1.014-9.631-3.042c-2.23-2.029-3.348-4.767-3.348-8.316  c0-2.534,0.406-4.867,1.217-7.198c0.812-2.231,2.029-4.259,3.651-5.983c1.622-1.623,3.549-2.941,5.881-3.955  c1.521-0.609,3.245-1.116,4.97-1.319v6.185c-0.509,0.204-1.116,0.406-1.625,0.709c-0.911,0.609-1.824,1.522-2.533,2.638  c-0.71,1.115-1.218,2.332-1.623,3.955c-0.404,1.521-0.608,3.144-0.608,4.765c0,1.927,0.405,3.347,1.318,4.158  c0.811,0.811,2.029,1.217,3.446,1.217c0.61,0,1.116-0.102,1.625-0.203V60.853z" transform="matrix(1, 0, 0, 1, 1.7763568394002505e-15, 8.881784197001252e-16)"/>
  <path fill="#B3B2B2" d="M247.281,42.297c0,2.637-0.405,5.071-1.318,7.402c-0.913,2.333-2.128,4.259-3.752,5.983  c-1.622,1.725-3.549,3.042-5.781,3.955c-1.52,0.608-3.142,1.014-4.966,1.216v-6.185c0.607-0.203,1.114-0.405,1.52-0.71  c1.014-0.608,1.927-1.419,2.638-2.433c0.707-1.216,1.316-2.434,1.723-3.853c0.405-1.42,0.609-3.043,0.609-5.071  c0-1.724-0.407-3.042-1.117-3.955c-0.81-0.913-2.027-1.419-3.649-1.419c-0.608,0-1.115,0.101-1.723,0.202v-6.185  c0.911-0.101,1.926-0.101,2.839-0.101c4.259,0,7.402,0.912,9.633,2.94C246.166,36.011,247.281,38.749,247.281,42.297z   M231.464,60.853c-0.813,0.103-1.827,0.204-2.738,0.204c-4.157,0-7.403-1.014-9.635-3.042c-2.231-2.029-3.345-4.767-3.345-8.316  c0-2.534,0.405-4.867,1.215-7.198c0.813-2.231,2.029-4.259,3.752-5.983c1.521-1.623,3.448-2.941,5.781-3.955  c1.52-0.609,3.244-1.116,4.97-1.319v6.185c-0.508,0.204-1.116,0.406-1.624,0.709c-0.911,0.609-1.826,1.522-2.535,2.638  s-1.215,2.332-1.622,3.955c-0.405,1.521-0.607,3.144-0.607,4.765c0,1.927,0.404,3.347,1.317,4.158  c0.812,0.811,2.028,1.217,3.447,1.217c0.606,0,1.116-0.102,1.624-0.203V60.853z" transform="matrix(1, 0, 0, 1, 1.7763568394002505e-15, 8.881784197001252e-16)"/>
  <polygon fill="#B3B2B2" points="268.17,21.104 259.146,60.145 250.018,60.145 259.043,21.104 " transform="matrix(1, 0, 0, 1, 1.7763568394002505e-15, 8.881784197001252e-16)"/>
  <g transform="matrix(1, 0, 0, 1, 1.7763568394002505e-15, 8.881784197001252e-16)">
    <image overflow="visible" width="788" height="77" transform="matrix(0.3373 0 0 0.3346 7.5684 99.7861)"/>
  </g>
  <polygon fill="#FFFFFF" points="31.904,103.444 24.807,118.349 22.474,118.349 22.068,105.977 16.289,118.349 14.058,118.349   13.449,103.444 15.479,103.444 15.883,115.814 21.663,103.444 23.691,103.444 24.096,115.916 29.978,103.444 " transform="matrix(1, 0, 0, 1, 1.7763568394002505e-15, 8.881784197001252e-16)"/>
  <path fill="#FFFFFF" d="M40.321,111.555c0.102-0.202,0.102-0.404,0.102-0.508c0-0.101,0-0.305,0-0.404  c0-0.71-0.203-1.319-0.608-1.725c-0.304-0.404-0.913-0.607-1.825-0.607c-0.305,0-0.507,0.1-0.812,0.1v-1.418  c0.406-0.103,0.812-0.103,1.217-0.103c1.216,0,2.23,0.305,2.94,0.913c0.609,0.607,0.913,1.521,0.913,2.636c0,0.204,0,0.508,0,0.914  c-0.102,0.507-0.204,1.013-0.304,1.52h-4.767v-1.317H40.321L40.321,111.555z M37.178,118.553v-1.521  c0.709-0.102,1.318-0.203,2.027-0.507c0.71-0.203,1.42-0.608,1.927-0.913h0.101l-0.405,2.028c-0.305,0.101-0.608,0.202-0.913,0.304  c-0.304,0.1-0.607,0.203-1.014,0.303c-0.405,0.103-0.811,0.204-1.114,0.204C37.685,118.553,37.482,118.553,37.178,118.553z   M37.178,108.41c-0.609,0.104-1.116,0.406-1.725,0.813c-0.709,0.607-1.216,1.318-1.419,2.332h3.144v1.317H33.73  c0,0.203-0.103,0.407-0.103,0.611c0,0.201,0,0.302,0,0.505c0,0.913,0.305,1.724,0.812,2.229c0.608,0.508,1.419,0.813,2.433,0.813  c0.101,0,0.203,0,0.305,0v1.521c-0.102,0-0.305,0-0.609,0c-1.52,0-2.737-0.307-3.549-1.117c-0.913-0.71-1.317-1.724-1.317-3.143  c0-2.028,0.608-3.752,1.926-5.272c1.015-1.116,2.231-1.826,3.55-2.028V108.41z" transform="matrix(1, 0, 0, 1, 1.7763568394002505e-15, 8.881784197001252e-16)"/>
  <path fill="#FFFFFF" d="M52.489,109.121h-0.101c-0.304,0-0.507-0.101-0.709-0.101c-0.304,0-0.507-0.103-0.812-0.103  c-0.71,0-1.318,0.203-1.926,0.508c-0.609,0.203-1.217,0.607-1.725,1.013l-1.825,7.91h-1.927l2.535-11.154h1.926l-0.404,1.622  c0.912-0.609,1.622-1.014,2.332-1.316c0.608-0.204,1.115-0.306,1.724-0.306c0.304,0,0.608,0,0.709,0  c0.102,0,0.406,0.102,0.609,0.102L52.489,109.121z" transform="matrix(1, 0, 0, 1, 1.7763568394002505e-15, 8.881784197001252e-16)"/>
  <path fill="#FFFFFF" d="M63.542,110.742c0,1.016-0.203,2.029-0.507,3.043c-0.406,1.015-0.811,1.826-1.419,2.536  c-0.507,0.71-1.216,1.318-1.927,1.722c-0.507,0.203-1.014,0.407-1.623,0.51v-1.623c0.405-0.102,0.71-0.204,1.014-0.405  c0.507-0.407,1.014-0.813,1.319-1.32c0.405-0.608,0.709-1.216,0.912-1.925c0.203-0.712,0.203-1.42,0.203-2.232  c0-0.811-0.102-1.418-0.508-1.824c-0.303-0.406-0.81-0.607-1.622-0.607c-0.406,0-0.913,0-1.318,0.201v-1.42l0.102-0.101  c0.608-0.304,1.317-0.406,2.028-0.406c1.013,0,1.925,0.305,2.433,1.015C63.237,108.514,63.542,109.527,63.542,110.742z   M58.066,118.553c-0.304,0-0.507,0.101-0.811,0.101c-0.608,0-1.116-0.101-1.623-0.305c-0.507-0.103-1.013-0.306-1.419-0.608  l-0.204,0.608h-1.825l3.65-15.515h1.825l-1.318,5.477c0.609-0.406,1.217-0.71,1.724-0.914v1.42  c-0.101,0.102-0.304,0.102-0.406,0.204c-0.607,0.202-1.115,0.507-1.622,0.912l-1.521,6.389c0.506,0.203,0.913,0.404,1.318,0.507  c0.406,0.102,0.812,0.203,1.42,0.203c0.304,0,0.507-0.102,0.811-0.102V118.553z" transform="matrix(1, 0, 0, 1, 1.7763568394002505e-15, 8.881784197001252e-16)"/>
  <path fill="#FFFFFF" d="M76.724,107.194l-2.535,11.154h-1.927l0.303-1.317c-0.709,0.508-1.418,0.912-2.027,1.215  c-0.61,0.204-1.217,0.407-1.927,0.407c-0.913,0-1.724-0.305-2.231-0.812c-0.507-0.406-0.812-1.116-0.812-2.027  c0-0.305,0-0.508,0.102-0.711c0-0.202,0-0.406,0.102-0.71l1.622-7.199h1.927l-1.521,6.289c0,0.302-0.102,0.606-0.102,0.91  c-0.102,0.304-0.102,0.608-0.102,0.811c0,0.508,0.102,1.014,0.406,1.218c0.304,0.304,0.811,0.508,1.521,0.508  c0.506,0,1.014-0.204,1.622-0.508c0.709-0.204,1.216-0.607,1.825-0.912l1.926-8.315H76.724z" transform="matrix(1, 0, 0, 1, 1.7763568394002505e-15, 8.881784197001252e-16)"/>
  <path fill="#FFFFFF" d="M88.994,109.729c0,0.101,0,0.407,0,0.608c-0.101,0.305-0.101,0.506-0.203,0.709l-1.623,7.302h-1.927  l1.521-6.389c0.103-0.303,0.103-0.607,0.204-0.913c0-0.305,0-0.506,0-0.811c0-0.507-0.101-0.913-0.406-1.216  c-0.304-0.306-0.71-0.405-1.521-0.405c-0.507,0-1.014,0.1-1.622,0.405c-0.608,0.303-1.217,0.608-1.826,1.013l-1.824,8.315h-1.927  l2.535-11.154h1.927l-0.304,1.216c0.71-0.506,1.419-0.91,2.028-1.114c0.609-0.304,1.216-0.406,1.926-0.406  c0.914,0,1.724,0.203,2.231,0.711S88.994,108.816,88.994,109.729z" transform="matrix(1, 0, 0, 1, 1.7763568394002505e-15, 8.881784197001252e-16)"/>
  <path fill="#FFFFFF" d="M102.277,107.194l-2.23,9.837c-0.407,1.926-1.116,3.346-2.13,4.157c-0.405,0.404-0.913,0.607-1.419,0.913  v-1.827c0.202-0.101,0.303-0.201,0.406-0.304c0.304-0.303,0.506-0.608,0.709-0.914c0.203-0.403,0.304-0.811,0.406-1.316l0.202-0.912  c-0.608,0.404-1.217,0.711-1.724,0.912v-1.419c0.101-0.104,0.303-0.104,0.406-0.204c0.607-0.201,1.115-0.506,1.722-0.913  l1.319-5.981c-0.405-0.305-0.812-0.406-1.216-0.508c-0.507-0.201-0.913-0.201-1.42-0.201c-0.305,0-0.508,0-0.811,0.102v-1.726  c0.303,0,0.506,0,0.811,0c0.608,0,1.217,0,1.724,0.203c0.507,0.102,0.913,0.304,1.318,0.609l0.203-0.508H102.277z M96.498,122.102  c-0.812,0.303-1.725,0.403-2.738,0.403c-0.608,0-1.217,0-1.724-0.101c-0.608-0.101-1.115-0.202-1.622-0.405l0.405-1.825h0.103  c0.405,0.203,0.912,0.304,1.521,0.507c0.608,0.101,1.216,0.203,1.825,0.203s1.116-0.103,1.521-0.203  c0.304-0.102,0.506-0.203,0.71-0.406V122.102L96.498,122.102z M96.498,117.74v0.102c-0.507,0.201-1.217,0.305-2.028,0.305  c-1.014,0-1.927-0.305-2.535-1.014c-0.609-0.608-0.913-1.623-0.913-2.739c0-1.015,0.203-1.927,0.507-2.839  c0.304-0.912,0.71-1.725,1.318-2.434c0.507-0.711,1.217-1.217,2.029-1.621c0.507-0.306,1.013-0.508,1.622-0.61v1.726  c-0.304,0-0.609,0.1-0.913,0.303c-0.609,0.305-1.014,0.711-1.421,1.219c-0.404,0.506-0.607,1.113-0.81,1.823  c-0.203,0.711-0.305,1.319-0.305,2.028c0,0.812,0.102,1.421,0.508,1.826c0.303,0.403,0.912,0.607,1.723,0.607  c0.406,0,0.812,0,1.217-0.101V117.74z" transform="matrix(1, 0, 0, 1, 1.7763568394002505e-15, 8.881784197001252e-16)"/>
  <path fill="#FFFFFF" d="M125.6,108.715c0,1.318-0.203,2.535-0.508,3.752c-0.405,1.218-1.014,2.23-1.724,3.145  c-0.812,0.913-1.723,1.621-2.738,2.23c-0.709,0.305-1.317,0.507-2.128,0.608v-1.622c0.507-0.103,1.013-0.205,1.419-0.507  c0.709-0.405,1.42-1.015,1.927-1.726c0.609-0.709,1.014-1.62,1.216-2.533c0.305-0.912,0.508-1.926,0.508-3.042  c0-1.42-0.406-2.436-1.015-3.144c-0.709-0.711-1.622-1.116-2.94-1.116c-0.304,0-0.709,0.102-1.115,0.102v-1.623  c0.507,0,1.013-0.101,1.521-0.101c1.724,0,3.143,0.507,4.056,1.419C125.092,105.571,125.6,106.89,125.6,108.715z M118.502,118.45  c-0.507,0.103-0.913,0.203-1.521,0.203c-1.724,0-3.144-0.507-4.056-1.521c-1.015-0.915-1.521-2.333-1.521-4.058  c0-1.418,0.203-2.637,0.608-3.853c0.405-1.114,0.913-2.23,1.724-3.143c0.709-0.914,1.623-1.623,2.738-2.13  c0.608-0.305,1.318-0.506,2.028-0.711v1.623c-0.507,0.101-1.014,0.304-1.42,0.608c-0.71,0.406-1.42,1.013-1.926,1.724  c-0.609,0.71-1.015,1.622-1.218,2.535c-0.304,1.013-0.507,2.028-0.507,3.042c0,1.318,0.406,2.433,1.014,3.145  c0.711,0.707,1.725,1.115,2.941,1.115c0.406,0,0.71-0.102,1.116-0.203V118.45z" transform="matrix(1, 0, 0, 1, 1.7763568394002505e-15, 8.881784197001252e-16)"/>
  <path fill="#FFFFFF" d="M137.87,109.729c0,0.101-0.103,0.407-0.103,0.608c0,0.305-0.101,0.506-0.101,0.709l-1.724,7.302h-1.825  l1.419-6.389c0.103-0.303,0.204-0.607,0.204-0.913c0.102-0.305,0.102-0.506,0.102-0.811c0-0.507-0.203-0.913-0.406-1.216  c-0.305-0.306-0.812-0.405-1.521-0.405c-0.506,0-1.014,0.1-1.622,0.405c-0.609,0.303-1.217,0.608-1.825,1.013l-1.926,8.315h-1.826  l2.534-11.154h1.826l-0.202,1.216c0.709-0.506,1.317-0.91,1.926-1.114c0.609-0.304,1.318-0.406,1.927-0.406  c1.014,0,1.723,0.203,2.332,0.711C137.565,108.108,137.87,108.816,137.87,109.729z" transform="matrix(1, 0, 0, 1, 1.7763568394002505e-15, 8.881784197001252e-16)"/>
  <polygon fill="#FFFFFF" points="144.967,102.834 141.418,118.349 139.593,118.349 143.142,102.834 " transform="matrix(1, 0, 0, 1, 1.7763568394002505e-15, 8.881784197001252e-16)"/>
  <path fill="#FFFFFF" d="M150.545,103.342l-0.407,1.926h-2.128l0.403-1.926H150.545L150.545,103.342z M149.529,107.194l-2.535,11.154  h-1.927l2.638-11.154H149.529z" transform="matrix(1, 0, 0, 1, 1.7763568394002505e-15, 8.881784197001252e-16)"/>
  <path fill="#FFFFFF" d="M161.8,109.729c0,0.101,0,0.407,0,0.608c0,0.305-0.101,0.506-0.101,0.709l-1.726,7.302h-1.824l1.42-6.389  c0.101-0.303,0.101-0.607,0.202-0.913c0-0.305,0.102-0.506,0.102-0.811c0-0.507-0.203-0.913-0.506-1.216  c-0.204-0.306-0.712-0.405-1.421-0.405c-0.506,0-1.114,0.1-1.723,0.405c-0.61,0.303-1.218,0.608-1.726,1.013l-1.926,8.315h-1.927  l2.636-11.154h1.826l-0.305,1.216c0.711-0.506,1.421-0.91,2.029-1.114c0.608-0.304,1.217-0.406,1.926-0.406  c0.912,0,1.724,0.203,2.231,0.711C161.597,108.108,161.8,108.816,161.8,109.729z" transform="matrix(1, 0, 0, 1, 1.7763568394002505e-15, 8.881784197001252e-16)"/>
  <path fill="#FFFFFF" d="M172.648,111.555c0-0.202,0-0.404,0-0.508c0-0.101,0-0.305,0-0.404c0-0.71-0.201-1.319-0.506-1.725  c-0.406-0.404-1.014-0.607-1.927-0.607c-0.201,0-0.506,0.1-0.71,0.1v-1.418c0.306-0.103,0.71-0.103,1.114-0.103  c1.319,0,2.232,0.305,2.941,0.913c0.608,0.607,1.014,1.521,1.014,2.636c0,0.204-0.1,0.508-0.1,0.914  c-0.102,0.507-0.203,1.013-0.306,1.52h-4.664v-1.317H172.648L172.648,111.555z M169.506,118.553v-1.521  c0.608-0.102,1.218-0.203,1.928-0.507c0.709-0.203,1.419-0.608,1.927-0.913h0.101l-0.407,2.028  c-0.303,0.101-0.606,0.202-0.911,0.304c-0.203,0.1-0.608,0.203-1.014,0.303c-0.405,0.103-0.812,0.204-1.114,0.204  C169.912,118.553,169.71,118.553,169.506,118.553z M169.506,108.41c-0.709,0.104-1.217,0.406-1.823,0.813  c-0.712,0.607-1.219,1.318-1.422,2.332h3.245v1.317h-3.549c0,0.203-0.101,0.407-0.101,0.611c0,0.201,0,0.302,0,0.505  c0,0.913,0.304,1.724,0.912,2.229c0.506,0.508,1.317,0.813,2.435,0.813c0.101,0,0.201,0,0.303,0v1.521c-0.202,0-0.405,0-0.607,0  c-1.624,0-2.839-0.307-3.651-1.117c-0.913-0.71-1.318-1.724-1.318-3.143c0-2.028,0.609-3.752,1.928-5.272  c1.013-1.116,2.229-1.826,3.649-2.028V108.41z" transform="matrix(1, 0, 0, 1, 1.7763568394002505e-15, 8.881784197001252e-16)"/>
  <path fill="#FFFFFF" d="M196.682,118.349h-2.332l-1.825-2.231c-0.913,0.914-1.725,1.522-2.637,1.926c0,0-0.102,0.104-0.202,0.104  v-1.421c0.101,0,0.202-0.103,0.304-0.103c0.608-0.302,1.217-0.809,1.825-1.419l-2.129-2.533v-3.65  c0.304-0.103,0.507-0.204,0.708-0.306c0.406-0.305,0.711-0.508,0.914-0.811c0.102-0.304,0.304-0.608,0.406-0.912  c0-0.306,0.101-0.609,0.101-1.016c0-0.506-0.203-0.912-0.507-1.216c-0.406-0.304-0.812-0.405-1.216-0.405c-0.204,0-0.306,0-0.406,0  v-1.116c0.202-0.101,0.507-0.101,0.708-0.101c1.016,0,1.929,0.306,2.537,0.812c0.606,0.507,0.913,1.216,0.913,2.026  c0,0.204,0,0.608-0.203,1.016c-0.104,0.304-0.305,0.71-0.508,1.116c-0.305,0.405-0.71,0.708-1.216,1.114  c-0.609,0.305-1.217,0.607-2.131,0.811l3.042,3.651c0.407-0.507,0.609-1.218,0.813-1.927c0.303-0.812,0.406-1.621,0.609-2.535h2.027  l-0.203,1.014c-0.203,0.71-0.508,1.521-0.812,2.23c-0.405,0.813-0.913,1.521-1.521,2.333L196.682,118.349z M189.686,118.146  c-0.71,0.304-1.522,0.507-2.333,0.507c-1.217,0-2.23-0.407-2.941-1.014c-0.809-0.71-1.216-1.522-1.216-2.638  c0-0.608,0.203-1.217,0.407-1.824c0.202-0.507,0.506-1.014,0.911-1.42c0.405-0.405,0.813-0.812,1.318-1.115  c0.404-0.305,0.912-0.609,1.317-0.813c-0.405-0.303-0.811-0.709-1.114-1.215c-0.303-0.408-0.407-0.913-0.407-1.421  s0.104-1.014,0.306-1.419c0.202-0.508,0.507-0.913,0.912-1.318c0.406-0.406,0.912-0.711,1.521-0.912  c0.405-0.203,0.813-0.306,1.319-0.306v1.116c-0.507,0.102-1.016,0.303-1.418,0.709c-0.407,0.507-0.61,1.116-0.61,1.825  c0,0.406,0.101,0.711,0.303,1.116c0.203,0.404,0.609,0.811,1.116,1.217c0.203,0,0.406-0.102,0.609-0.202v3.65l-1.726-2.13  c-0.202,0.102-0.404,0.303-0.811,0.506c-0.304,0.306-0.607,0.508-0.811,0.711c-0.203,0.305-0.507,0.709-0.606,1.114  c-0.204,0.507-0.306,0.913-0.306,1.521c0,0.811,0.201,1.421,0.709,1.928c0.406,0.507,1.116,0.71,1.928,0.71  c0.606,0,1.115-0.102,1.622-0.306V118.146z" transform="matrix(1, 0, 0, 1, 1.7763568394002505e-15, 8.881784197001252e-16)"/>
  <path fill="#FFFFFF" d="M219.903,108.715c0,1.318-0.204,2.535-0.508,3.752c-0.405,1.218-1.014,2.23-1.724,3.145  c-0.813,0.913-1.725,1.621-2.738,2.23c-0.608,0.305-1.317,0.507-2.13,0.608v-1.622c0.508-0.103,1.015-0.205,1.421-0.507  c0.813-0.405,1.419-1.015,1.927-1.726c0.606-0.709,1.014-1.62,1.317-2.533c0.203-0.912,0.406-1.926,0.406-3.042  c0-1.42-0.406-2.436-1.016-3.144c-0.708-0.711-1.621-1.116-2.838-1.116c-0.405,0-0.812,0.102-1.218,0.102v-1.623  c0.508,0,1.015-0.101,1.521-0.101c1.726,0,3.144,0.507,4.057,1.419C219.396,105.571,219.903,106.89,219.903,108.715z   M212.804,118.45c-0.506,0.103-0.911,0.203-1.521,0.203c-1.724,0-3.145-0.507-4.055-1.521c-1.015-0.915-1.521-2.333-1.521-4.058  c0-1.418,0.203-2.637,0.608-3.853c0.405-1.114,0.913-2.23,1.724-3.143c0.71-0.914,1.621-1.623,2.737-2.13  c0.608-0.305,1.318-0.506,2.027-0.711v1.623c-0.506,0.101-0.911,0.304-1.419,0.608c-0.711,0.406-1.42,1.013-1.926,1.724  c-0.61,0.71-1.016,1.622-1.218,2.535c-0.304,1.013-0.507,2.028-0.507,3.042c0,1.318,0.404,2.433,1.015,3.145  c0.71,0.707,1.724,1.115,2.941,1.115c0.404,0,0.709-0.102,1.113-0.203V118.45z" transform="matrix(1, 0, 0, 1, 1.7763568394002505e-15, 8.881784197001252e-16)"/>
  <path fill="#FFFFFF" d="M230.043,104.558h-0.101c-0.204-0.101-0.407-0.101-0.812-0.202c-0.307-0.103-0.609-0.103-0.813-0.103  c-0.811,0-1.42,0.204-1.824,0.609s-0.711,1.114-0.912,1.927l-0.103,0.405h3.345l-0.303,1.521h-3.347l-2.229,9.634h-1.828l2.13-9.634  h-1.216l0.304-1.521h1.318l0.102-0.405c0.202-1.318,0.71-2.332,1.521-3.043c0.813-0.709,1.824-1.014,3.144-1.014  c0.403,0,0.71,0,1.114,0c0.305,0.102,0.609,0.102,0.911,0.203L230.043,104.558z" transform="matrix(1, 0, 0, 1, 1.7763568394002505e-15, 8.881784197001252e-16)"/>
  <path fill="#FFFFFF" d="M237.241,104.558h-0.101c-0.203-0.101-0.508-0.101-0.813-0.202c-0.302-0.103-0.606-0.103-0.81-0.103  c-0.812,0-1.419,0.204-1.825,0.609c-0.405,0.405-0.812,1.114-1.014,1.927v0.405h3.347l-0.405,1.521h-3.246l-2.23,9.634h-1.826  l2.128-9.634h-1.315l0.404-1.521h1.218l0.101-0.405c0.305-1.318,0.813-2.332,1.622-3.043c0.813-0.709,1.827-1.014,3.043-1.014  c0.407,0,0.81,0,1.114,0c0.405,0.102,0.711,0.102,0.913,0.203L237.241,104.558z" transform="matrix(1, 0, 0, 1, 1.7763568394002505e-15, 8.881784197001252e-16)"/>
  <polygon fill="#FFFFFF" points="240.792,102.834 237.241,118.349 235.314,118.349 238.967,102.834 " transform="matrix(1, 0, 0, 1, 1.7763568394002505e-15, 8.881784197001252e-16)"/>
  <path fill="#FFFFFF" d="M246.369,103.342l-0.406,1.926h-2.128l0.403-1.926H246.369L246.369,103.342z M245.354,107.194l-2.535,11.154  h-1.927l2.638-11.154H245.354z" transform="matrix(1, 0, 0, 1, 1.7763568394002505e-15, 8.881784197001252e-16)"/>
  <path fill="#FFFFFF" d="M257.624,109.729c0,0.101,0,0.407,0,0.608c0,0.305-0.101,0.506-0.101,0.709l-1.725,7.302h-1.824l1.419-6.389  c0.101-0.303,0.203-0.607,0.203-0.913c0-0.305,0.101-0.506,0.101-0.811c0-0.507-0.203-0.913-0.404-1.216  c-0.307-0.306-0.814-0.405-1.521-0.405c-0.508,0-1.116,0.1-1.725,0.405c-0.609,0.303-1.116,0.608-1.724,1.013l-1.927,8.315h-1.928  l2.638-11.154h1.824l-0.303,1.216c0.709-0.506,1.419-0.91,2.027-1.114c0.608-0.304,1.319-0.406,1.928-0.406  c1.014,0,1.724,0.203,2.231,0.711C257.421,108.108,257.624,108.816,257.624,109.729z" transform="matrix(1, 0, 0, 1, 1.7763568394002505e-15, 8.881784197001252e-16)"/>
  <path fill="#FFFFFF" d="M268.474,111.555c0-0.202,0-0.404,0-0.508c0-0.101,0.103-0.305,0.103-0.404c0-0.71-0.203-1.319-0.608-1.725  c-0.407-0.404-1.016-0.607-1.929-0.607c-0.201,0-0.506,0.1-0.709,0.1v-1.418c0.303-0.103,0.709-0.103,1.116-0.103  c1.318,0,2.229,0.305,2.94,0.913c0.608,0.607,1.016,1.521,1.016,2.636c0,0.204-0.103,0.508-0.103,0.914  c-0.102,0.507-0.202,1.013-0.305,1.52h-4.665v-1.317H268.474L268.474,111.555z M265.33,118.553v-1.521  c0.608-0.102,1.217-0.203,1.929-0.507c0.808-0.203,1.417-0.608,1.925-0.913h0.103l-0.405,2.028c-0.305,0.101-0.61,0.202-0.913,0.304  c-0.203,0.1-0.608,0.203-1.016,0.303c-0.405,0.103-0.709,0.204-1.014,0.204C265.737,118.553,265.533,118.553,265.33,118.553z   M265.33,108.41c-0.709,0.104-1.215,0.406-1.723,0.813c-0.813,0.607-1.217,1.318-1.521,2.332h3.244v1.317h-3.549  c0,0.203,0,0.407-0.101,0.611c0,0.201,0,0.302,0,0.505c0,0.913,0.305,1.724,0.911,2.229c0.508,0.508,1.319,0.813,2.434,0.813  c0.104,0,0.204,0,0.305,0v1.521c-0.201,0-0.405,0-0.608,0c-1.521,0-2.736-0.307-3.649-1.117c-0.913-0.71-1.318-1.724-1.318-3.143  c0-2.028,0.607-3.752,1.927-5.272c1.014-1.116,2.23-1.826,3.649-2.028V108.41z" transform="matrix(1, 0, 0, 1, 1.7763568394002505e-15, 8.881784197001252e-16)"/>
</svg>