<?xml version="1.0" encoding="UTF-8"?>
<svg xmlns="http://www.w3.org/2000/svg" xmlns:xlink="http://www.w3.org/1999/xlink" xmlns:xodm="http://www.corel.com/coreldraw/odm/2003" xml:space="preserve" width="885px" height="885px" version="1.1" style="shape-rendering:geometricPrecision; text-rendering:geometricPrecision; image-rendering:optimizeQuality; fill-rule:evenodd; clip-rule:evenodd" viewBox="0 0 1135.04 1135.04">
 <defs>
  <style type="text/css">
   
    .str0 {stroke:#2B2A29;stroke-width:90.93;stroke-miterlimit:22.9256}
    .fil0 {fill:#FEFEFE}
    .fil1 {fill:black}
   
  </style>
 </defs>
 <g id="Ebene_x0020_1">
  <metadata id="CorelCorpID_0Corel-Layer"></metadata>
  <circle class="fil0 str0" cx="567.52" cy="567.52" r="522.05"></circle>
  <g id="_2134764499376">
   <path class="fil1" d="M278.04 338.46c-26.03,5.68 -45.44,45.95 -29.04,72.25 12.91,20.71 44.51,30.38 72.61,38.81 14.77,4.43 113.99,34.95 126.84,40.21 16,6.54 20.4,15.52 20.89,34.62 0.47,18.34 -2.39,32.34 -4.61,49.51 -2.21,17.1 -3.98,33.76 -6.21,50.41 -4.28,31.92 -10.79,63.28 -16.44,94.95 -11.22,62.9 -22.2,125.14 -34.36,188.9 -3.24,17.02 -6.12,31.6 3.66,45.83 7.33,10.67 19.01,18.32 35.4,20.38 37.7,4.74 53.57,-19.5 59.93,-50.18 15.12,-72.88 27.78,-156.32 51.89,-226.84 4.29,-12.54 12.04,-35.91 23.13,-15.1 12.16,22.84 19.36,57.95 26.5,84.55 7.36,27.4 24.31,106.29 29.5,137.43 4.66,28.05 10.09,61.62 41.89,69.28 16.1,3.88 35.23,-0.65 45.65,-7.93 27.95,-19.53 16.13,-52.15 9.87,-85.11 -11.85,-62.32 -21.93,-125.92 -35.06,-188.15 -6.18,-29.32 -18.57,-111.44 -21.42,-144.68 -4.72,-55 9.73,-47.9 88.57,-76.34 27.2,-9.81 55.43,-19.61 82.9,-29.08 25.91,-8.93 57.24,-23.02 54.63,-56.99 -1.25,-16.27 -9.25,-30.38 -17.44,-37.86 -13.08,-11.93 -24.76,-10.72 -42.47,-5.73 -58.5,16.49 -118.63,30.95 -182.28,40.81 -106.16,16.45 -193.88,1.09 -294.84,-23.38 -14.47,-3.51 -29.82,-7.05 -44.57,-11.45 -12.16,-3.63 -32.66,-11.83 -45.12,-9.12z"></path>
   <path class="fil1" d="M562.55 160.3c-46.37,7.94 -83.2,45.93 -76.68,100.21 5.34,44.44 48.73,84.19 100.45,76.41 44.74,-6.73 83.01,-47.27 76.07,-100.06 -5.62,-42.69 -47.64,-85.49 -99.84,-76.56z"></path>
  </g>
 </g>
</svg>
