<?xml version="1.0" encoding="UTF-8"?>
<svg xmlns="http://www.w3.org/2000/svg" xmlns:xlink="http://www.w3.org/1999/xlink" xmlns:xodm="http://www.corel.com/coreldraw/odm/2003" xml:space="preserve" width="885px" height="885px" version="1.1" style="shape-rendering:geometricPrecision; text-rendering:geometricPrecision; image-rendering:optimizeQuality; fill-rule:evenodd; clip-rule:evenodd" viewBox="0 0 1555.48 1555.48">
 <defs>
  <style type="text/css">
   
    .str0 {stroke:#1095C4;stroke-width:124.62;stroke-miterlimit:22.9256}
    .fil0 {fill:#FEFEFE}
    .fil1 {fill:#1095C4}
   
  </style>
 </defs>
 <g id="Ebene_x0020_1">
  <metadata id="CorelCorpID_0Corel-Layer"></metadata>
  <circle class="fil0 str0" cx="777.74" cy="777.74" r="715.43"></circle>
  <g id="_2381243464592">
   <path class="fil1" d="M381.04 463.83c-35.69,7.79 -62.28,62.97 -39.81,99.01 17.7,28.38 61,41.63 99.5,53.18 20.26,6.08 156.23,47.91 173.83,55.11 21.93,8.96 27.97,21.27 28.64,47.45 0.64,25.13 -3.29,44.31 -6.33,67.85 -3.02,23.43 -5.46,46.26 -8.51,69.07 -5.86,43.75 -14.79,86.74 -22.53,130.13 -15.38,86.2 -30.42,171.49 -47.08,258.88 -4.45,23.32 -8.39,43.3 5.01,62.8 10.05,14.62 26.05,25.1 48.51,27.92 51.67,6.5 73.41,-26.71 82.13,-68.76 20.72,-99.88 38.07,-214.23 71.11,-310.86 5.88,-17.19 16.5,-49.21 31.7,-20.7 16.67,31.3 26.53,79.41 36.32,115.87 10.08,37.54 33.32,145.66 40.42,188.34 6.4,38.43 13.83,84.44 57.41,94.94 22.06,5.32 48.28,-0.89 62.57,-10.87 38.3,-26.77 22.1,-71.46 13.51,-116.64 -16.23,-85.4 -30.05,-172.56 -48.03,-257.83 -8.48,-40.19 -25.46,-152.73 -29.37,-198.28 -6.46,-75.38 13.34,-65.64 121.38,-104.61 37.28,-13.45 75.97,-26.89 113.62,-39.87 35.5,-12.23 78.43,-31.54 74.86,-78.08 -1.71,-22.31 -12.68,-41.64 -23.91,-51.89 -17.91,-16.36 -33.92,-14.7 -58.2,-7.85 -80.16,22.59 -162.56,42.41 -249.79,55.92 -145.49,22.54 -265.71,1.49 -404.05,-32.04 -19.84,-4.81 -40.87,-9.66 -61.08,-15.69 -16.67,-4.97 -44.77,-16.22 -61.83,-12.5z"></path>
   <path class="fil1" d="M770.92 219.68c-63.54,10.88 -114.02,62.94 -105.08,137.33 7.32,60.89 66.78,115.37 137.66,104.71 61.32,-9.22 113.76,-64.78 104.24,-137.12 -7.69,-58.5 -65.27,-117.16 -136.82,-104.92z"></path>
  </g>
 </g>
</svg>
